<?xml version="1.0" encoding="UTF-8"?> <svg xmlns="http://www.w3.org/2000/svg" viewBox="0 0 171 49"><g fill="none" fill-rule="evenodd"><g fill-rule="nonzero"><path fill="#B41509" d="M34.446 11.39a2.43 2.43 0 00-2.997-1.68l-5.589 1.576-.969-3.441 6.87-1.934a4.674 4.674 0 015.766 3.23l3.284 11.662-3.44.969-2.925-10.381z"></path><path fill="#428ACA" d="M12.523 23.488L10.977 18a2.428 2.428 0 011.68-2.996l10.316-2.906-.969-3.44-11.596 3.266a4.673 4.673 0 00-3.232 5.766l1.906 6.768 3.441-.97z"></path><path fill="#000" d="M29.75 17.504l.28.99-12.409 3.495-.279-.991 12.408-3.494zm1.311 4.652l.279.991-12.408 3.495-.279-.99 12.408-3.496zm1.177 4.18l.28.991-12.409 3.494-.279-.991 12.408-3.494z"></path><path fill="#F68700" d="M24.907 37.462l-5.49 1.547a2.43 2.43 0 01-2.996-1.68L13.48 26.883l-3.44.969 3.302 11.726a4.673 4.673 0 005.766 3.232l6.77-1.907-.97-3.441z"></path><path fill="#1C9136" d="M38.34 25.218l1.55 5.502a2.428 2.428 0 01-1.679 2.996L27.794 36.65l.97 3.44 11.695-3.294a4.674 4.674 0 003.232-5.766l-1.91-6.782-3.44.97z"></path></g><text fill="#000" font-family="OpenSans-Regular, Open Sans" font-size="22"><tspan x="51.044" y="33">DeedClaim</tspan></text></g></svg> 