<svg width="90" height="46" viewBox="0 0 90 46" fill="none" xmlns="http://www.w3.org/2000/svg">
<path d="M21.8511 3.62187H2.94128V41.5719H21.8511C34.7698 41.5719 41.6347 34.6719 41.6347 22.5969C41.6347 10.5219 34.7698 3.62187 21.8511 3.62187ZM20.2909 33.0044H15.6727V12.1894H20.2909C26.407 12.1894 28.5289 15.5819 28.5289 22.5969C28.5289 29.6119 26.407 33.0044 20.2909 33.0044Z" fill="#010101"/>
<path d="M66.5231 28.1169H75.0107V28.4044C75.0107 31.7969 72.0775 33.4069 67.8961 33.4069C62.0921 33.4069 59.2213 30.2444 59.2213 22.5969C59.2213 15.4094 62.0297 12.0169 67.5217 12.0169C70.7669 12.0169 73.1385 13.5694 73.9498 17.1919L85.8075 13.1094C82.4374 5.97938 76.883 3.04688 67.0848 3.04688C54.0414 3.04688 46.1155 10.3494 46.1155 22.7119C46.1155 35.4769 54.4158 42.1469 65.275 42.1469C70.8293 42.1469 74.5739 40.3644 76.6958 37.2019L77.1326 41.5719H85.745V20.5844H66.5231V28.1169Z" fill="#010101"/>
</svg>
