<svg width="127" height="127" viewBox="0 0 127 127" fill="none" xmlns="http://www.w3.org/2000/svg">
<circle cx="63.9458" cy="63.514" r="63" fill="#0400FF"/>
<path d="M83.9157 77.9672C88.4893 74.0101 91.7437 68.7493 93.2427 62.8902C94.7416 57.0311 94.4134 50.8537 92.302 45.1864C90.1906 39.5192 86.397 34.6328 81.4299 31.1827C76.4627 27.7326 70.5594 25.8835 64.5116 25.8835C58.4638 25.8835 52.5605 27.7326 47.5934 31.1827C42.6262 34.6328 38.8326 39.5192 36.7212 45.1864C34.6098 50.8537 34.2816 57.0311 35.7805 62.8902C37.2795 68.7493 40.5339 74.0101 45.1075 77.9672L39.0141 88.486C38.7908 88.8752 38.6773 89.3177 38.6858 89.7664C38.6943 90.215 38.8244 90.6529 39.0622 91.0334C39.3 91.4139 39.6367 91.7228 40.0362 91.927C40.4358 92.1312 40.8833 92.2231 41.331 92.193L48.9999 91.8686L52.5448 98.6572C52.7506 99.0469 53.0566 99.3747 53.4313 99.6068C53.806 99.839 54.2357 99.967 54.6764 99.9778C55.1182 99.9815 55.5534 99.8702 55.9393 99.655C56.3252 99.4397 56.6485 99.1278 56.8774 98.7498L64.5 85.4276L72.2385 98.8425C72.4562 99.215 72.7674 99.5242 73.1412 99.7395C73.5151 99.9549 73.9386 100.069 74.37 100.07C74.8175 100.063 75.255 99.9369 75.6377 99.7048C76.0204 99.4728 76.3345 99.1432 76.5479 98.7498L80.0928 91.9613L87.7386 92.2857C88.1943 92.3137 88.649 92.2154 89.0524 92.0014C89.4558 91.7875 89.7922 91.4663 90.0247 91.0733C90.2571 90.6803 90.3765 90.2308 90.3697 89.7742C90.3629 89.3176 90.2301 88.8718 89.986 88.486L83.9157 77.9672ZM39.8945 55.5859C39.8946 50.6916 41.3474 45.9074 44.069 41.8395C46.7906 37.7716 50.6584 34.6031 55.1824 32.7355C59.7064 30.8678 64.6829 30.3851 69.4815 31.3484C74.2802 32.3117 78.6848 34.6777 82.1375 38.1466C85.5902 41.6156 87.9355 46.0313 88.8763 50.8344C89.817 55.6375 89.3109 60.6117 87.422 65.1269C85.5332 69.6421 82.3465 73.495 78.2659 76.1974C74.1853 78.8999 69.3943 80.3302 64.5 80.3073C57.9454 80.3011 51.661 77.6946 47.0262 73.0598C42.3913 68.425 39.7848 62.1405 39.7787 55.5859H39.8945ZM54.8385 92.471L52.6375 88.2774C52.4195 87.8575 52.0849 87.5095 51.6739 87.2752C51.2629 87.041 50.7929 86.9304 50.3206 86.9568L45.6868 87.1422L49.3011 80.8865C52.3949 82.7787 55.8119 84.0826 59.3797 84.7326L54.8385 92.471ZM78.888 86.9568C78.4156 86.9304 77.9457 87.041 77.5347 87.2752C77.1237 87.5095 76.7891 87.8575 76.5711 88.2774L74.37 92.471L69.8984 84.7326C73.4662 84.0826 76.8832 82.7787 79.977 80.8865L83.5913 87.1422L78.888 86.9568Z" fill="white"/>
<path d="M54.4216 58.8527L54.7691 65.8034C54.7813 66.1753 54.8771 66.5397 55.0494 66.8695C55.2216 67.1993 55.4659 67.4861 55.7641 67.7087C56.0623 67.9312 56.4068 68.0838 56.772 68.155C57.1372 68.2263 57.5137 68.2144 57.8737 68.1203L64.5001 66.1741L71.1264 67.9582C71.4855 68.0481 71.8598 68.0595 72.2237 67.9915C72.5875 67.9235 72.9324 67.7778 73.2348 67.5643C73.5339 67.3472 73.7806 67.0661 73.957 66.7414C74.1334 66.4166 74.2349 66.0566 74.2543 65.6876L74.6018 58.7369L78.4015 53.13C78.6021 52.8209 78.7313 52.4711 78.7798 52.1059C78.8282 51.7406 78.7946 51.3692 78.6814 51.0186C78.5682 50.668 78.3783 50.347 78.1255 50.079C77.8727 49.811 77.5633 49.6027 77.2199 49.4693L70.7326 47.0133L66.4231 41.6845C66.1907 41.3987 65.8974 41.1684 65.5648 41.0102C65.2322 40.852 64.8684 40.7699 64.5001 40.7699C64.1317 40.7699 63.768 40.852 63.4354 41.0102C63.1027 41.1684 62.8095 41.3987 62.5771 41.6845L58.2676 47.0133L51.8498 49.4461C51.497 49.5714 51.1772 49.7749 50.9143 50.0414C50.6515 50.308 50.4524 50.6306 50.332 50.985C50.2116 51.3395 50.1731 51.7166 50.2193 52.0881C50.2654 52.4596 50.3952 52.8158 50.5987 53.13L54.4216 58.8527ZM60.654 51.4155C61.0631 51.2573 61.4228 50.9935 61.6966 50.6509L64.5001 47.1755L67.3035 50.6509C67.5773 50.9935 67.9371 51.2573 68.3462 51.4155L72.5166 52.991L70.0607 56.7212C69.8233 57.0886 69.6875 57.5122 69.6668 57.9491L69.4351 62.3976L65.1257 61.2391C64.7007 61.1251 64.2532 61.1251 63.8282 61.2391L59.5187 62.3976L59.2871 57.9491C59.2664 57.5122 59.1305 57.0886 58.8932 56.7212L56.4604 52.991L60.654 51.4155Z" fill="white"/>
</svg>
