<svg width="126" height="127" viewBox="0 0 126 127" fill="none" xmlns="http://www.w3.org/2000/svg">
<circle cx="63" cy="63.5" r="63" fill="#7700E5"/>
<path d="M87.7633 49.4889V35.9778C87.7577 34.7869 87.2822 33.6464 86.4401 32.8043C85.598 31.9622 84.4575 31.4867 83.2666 31.4811H78.7699C77.5754 31.4811 76.4295 31.9542 75.5828 32.7969C74.7362 33.6396 74.2578 34.7832 74.2522 35.9778V36.5689L46.8077 45.0133H35.9777C34.1881 45.021 32.4738 45.7341 31.2066 46.9978C30.5796 47.62 30.0815 48.3599 29.741 49.175C29.4005 49.9901 29.2242 50.8644 29.2222 51.7478V67.5178C29.2279 68.9377 29.688 70.3186 30.5351 71.4582C31.3822 72.5979 32.5719 73.4364 33.9299 73.8511L35.3233 86.5178C35.5629 88.7236 36.6094 90.763 38.2618 92.2439C39.9141 93.7248 42.0556 94.5426 44.2744 94.54H47.2299C47.5444 94.5355 47.8546 94.4661 48.1409 94.3359C48.4272 94.2058 48.6835 94.0178 48.8937 93.7839C49.1039 93.5499 49.2633 93.275 49.3621 92.9764C49.4609 92.6778 49.4969 92.362 49.4677 92.0489L47.5255 74.5478L74.2522 84.8289V85.5256C74.2577 86.7164 74.7333 87.857 75.5753 88.699C76.4174 89.5411 77.558 90.0167 78.7488 90.0222H83.2666C84.4575 90.0167 85.598 89.5411 86.4401 88.699C87.2822 87.857 87.7577 86.7164 87.7633 85.5256V72.0144C90.1541 72.0144 92.4469 71.0647 94.1375 69.3742C95.828 67.6836 96.7777 65.3908 96.7777 63V58.5033C96.7777 56.1126 95.828 53.8197 94.1375 52.1292C92.4469 50.4386 90.1541 49.4889 87.7633 49.4889ZM33.7188 51.7478C33.7188 51.1487 33.9568 50.5741 34.3804 50.1505C34.8041 49.7269 35.3786 49.4889 35.9777 49.4889H44.9922V69.7556H35.9777C35.3786 69.7556 34.8041 69.5176 34.3804 69.0939C33.9568 68.6703 33.7188 68.0958 33.7188 67.4967V51.7478ZM44.2744 90.0222C43.1613 90.0287 42.0854 89.6222 41.2548 88.8813C40.4242 88.1403 39.8979 87.1177 39.7777 86.0111L38.4688 74.2522H42.9655L44.7177 90.0222H44.2744ZM49.4888 70.4522V48.8978L74.2522 41.2767V79.8889L49.4888 70.4522ZM83.2666 85.5044H78.7699V35.9778H83.2666V85.5044ZM92.2811 63C92.2755 64.1909 91.8 65.3314 90.9579 66.1735C90.1158 67.0156 88.9753 67.4911 87.7844 67.4967V53.9856C88.9753 53.9911 90.1158 54.4666 90.9579 55.3087C91.8 56.1508 92.2755 57.2913 92.2811 58.4822V63Z" fill="white"/>
</svg>
