<svg width="126" height="127" viewBox="0 0 126 127" fill="none" xmlns="http://www.w3.org/2000/svg">
<circle cx="63" cy="63.5" r="63" fill="#FEC703"/>
<path fill-rule="evenodd" clip-rule="evenodd" d="M66.4637 29.5H57.4113C49.5943 29.5 42.0976 32.6053 36.5702 38.1327C31.0428 43.6601 27.9375 51.1568 27.9375 58.9737V90.445C27.9059 91.8919 28.3134 93.3143 29.1063 94.525C29.7307 95.4429 30.5704 96.1939 31.5521 96.7125C32.5337 97.2311 33.6273 97.5015 34.7375 97.5H43.8113C45.6147 97.5 47.3443 96.7836 48.6196 95.5083C49.8948 94.2331 50.6113 92.5035 50.6113 90.7V77.1C50.6113 75.2965 49.8948 73.5669 48.6196 72.2917C47.3443 71.0164 45.6147 70.3 43.8113 70.3H32.4638V58.9737C32.461 55.6968 33.1043 52.4515 34.3571 49.4235C35.6098 46.3954 37.4473 43.6441 39.7645 41.327C42.0816 39.0098 44.8329 37.1723 47.861 35.9196C50.889 34.6668 54.1343 34.0235 57.4113 34.0263H66.485C69.7602 34.0262 73.0032 34.6717 76.0288 35.9257C79.0544 37.1797 81.8031 39.0176 84.118 41.3345C86.4329 43.6514 88.2685 46.4017 89.52 49.4284C90.7714 52.455 91.414 55.6986 91.4113 58.9737V70.3H80.0638C78.9536 70.2985 77.8599 70.5689 76.8783 71.0875C75.8967 71.6061 75.057 72.3571 74.4325 73.275C73.6396 74.4857 73.2321 75.9081 73.2638 77.355V90.7C73.2638 92.5035 73.9802 94.2331 75.2554 95.5083C76.5307 96.7836 78.2603 97.5 80.0638 97.5H89.1375C90.941 97.5 92.6706 96.7836 93.9458 95.5083C95.2211 94.2331 95.9375 92.5035 95.9375 90.7V58.9737C95.9375 51.1568 92.8322 43.6601 87.3048 38.1327C81.7774 32.6053 74.2807 29.5 66.4637 29.5ZM43.8113 74.8262C44.4126 74.8318 44.9877 75.0731 45.4129 75.4983C45.8381 75.9236 46.0795 76.4987 46.085 77.1V90.7C46.0795 91.3013 45.8381 91.8764 45.4129 92.3017C44.9877 92.7269 44.4126 92.9682 43.8113 92.9738H34.7375C34.1362 92.9682 33.5611 92.7269 33.1358 92.3017C32.7106 91.8764 32.4693 91.3013 32.4638 90.7V74.8262H43.8113ZM91.4113 90.7C91.4057 91.3013 91.1644 91.8764 90.7392 92.3017C90.3139 92.7269 89.7388 92.9682 89.1375 92.9738H80.0638C79.4607 92.9738 78.8824 92.7342 78.456 92.3078C78.0296 91.8814 77.79 91.303 77.79 90.7V77.1C77.79 76.497 78.0296 75.9186 78.456 75.4922C78.8824 75.0658 79.4607 74.8262 80.0638 74.8262H91.39L91.4113 90.7Z" fill="#010101"/>
<path fill-rule="evenodd" clip-rule="evenodd" d="M80.0638 61.2262V49.9C80.0638 47.4935 79.1078 45.1855 77.4061 43.4839C75.7045 41.7822 73.3965 40.8262 70.99 40.8262H52.8638C50.461 40.8319 48.1585 41.7903 46.4614 43.4914C44.7643 45.1924 43.8113 47.4972 43.8113 49.9V61.2262C43.8113 63.6327 44.7673 65.9407 46.4689 67.6423C48.1706 69.344 50.4785 70.3 52.885 70.3H56.4763L60.3438 74.125C60.7726 74.5442 61.3485 74.7789 61.9482 74.7789C62.5478 74.7789 63.1237 74.5442 63.5525 74.125L67.42 70.2575H71.0113C73.4068 70.2519 75.7028 69.2993 77.3987 67.6074C79.0945 65.9155 80.0526 63.6217 80.0638 61.2262ZM75.5375 61.2262C75.5319 62.4249 75.0533 63.573 74.2056 64.4206C73.358 65.2682 72.21 65.7469 71.0113 65.7525H66.4638C65.8666 65.7543 65.2942 65.9909 64.87 66.4112L61.9375 69.365L59.005 66.4325C58.5809 66.0121 58.0084 65.7755 57.4113 65.7737H52.8638C51.6651 65.7681 50.517 65.2895 49.6694 64.4419C48.8218 63.5942 48.3431 62.4462 48.3375 61.2475V49.9C48.3431 48.7013 48.8218 47.5532 49.6694 46.7056C50.517 45.858 51.6651 45.3793 52.8638 45.3737H70.99C72.1924 45.3737 73.3459 45.8499 74.1981 46.6981C75.0503 47.5464 75.5319 48.6976 75.5375 49.9V61.2262Z" fill="#010101"/>
<path d="M61.9374 57.8475C63.1932 57.8475 64.2112 56.8295 64.2112 55.5737C64.2112 54.318 63.1932 53.3 61.9374 53.3C60.6817 53.3 59.6637 54.318 59.6637 55.5737C59.6637 56.8295 60.6817 57.8475 61.9374 57.8475Z" fill="#010101"/>
<path d="M68.7375 57.8475C69.9933 57.8475 71.0112 56.8295 71.0112 55.5737C71.0112 54.318 69.9933 53.3 68.7375 53.3C67.4817 53.3 66.4637 54.318 66.4637 55.5737C66.4637 56.8295 67.4817 57.8475 68.7375 57.8475Z" fill="#010101"/>
<path d="M55.1375 57.8475C56.3933 57.8475 57.4113 56.8295 57.4113 55.5737C57.4113 54.318 56.3933 53.3 55.1375 53.3C53.8818 53.3 52.8638 54.318 52.8638 55.5737C52.8638 56.8295 53.8818 57.8475 55.1375 57.8475Z" fill="#010101"/>
</svg>
