<svg width="127" height="126" viewBox="0 0 127 126" fill="none" xmlns="http://www.w3.org/2000/svg">
<circle cx="62.9393" cy="62.8432" r="62.6623" fill="#7700E5"/>
<path d="M84.7488 49.6388H76.4502V41.0336C76.4502 38.1442 75.3024 35.3731 73.2593 33.33C71.2161 31.2868 68.4451 30.139 65.5557 30.139H41.1299C38.2421 30.1444 35.4742 31.294 33.4323 33.3359C31.3903 35.3779 30.2408 38.1458 30.2354 41.0336V60.983C30.2388 63.1644 30.9797 65.2805 32.3379 66.9874C33.6961 68.6944 35.5916 69.8919 37.7164 70.3854V71.6936C37.7127 72.4971 37.9324 73.2858 38.3512 73.9716C38.7699 74.6574 39.371 75.2133 40.0874 75.5771C40.7933 75.9231 41.5791 76.0733 42.3629 76.0122C43.1466 75.9511 43.8996 75.6808 44.5434 75.2297L49.3672 71.7753V79.195C49.3726 82.0828 50.5221 84.8507 52.5641 86.8927C54.606 88.9346 57.374 90.0841 60.2617 90.0896H74.7537L81.3354 94.7294C81.9899 95.1928 82.7587 95.4682 83.5586 95.5258C84.3584 95.5835 85.1588 95.4212 85.873 95.0565C86.588 94.6908 87.1878 94.1345 87.6063 93.4491C88.0247 92.7637 88.2455 91.9759 88.2441 91.1729V89.8647C90.3503 89.3562 92.2248 88.1549 93.5665 86.4536C94.9083 84.7523 95.6397 82.6495 95.6433 80.4827V60.5333C95.6379 57.6456 94.4884 54.8776 92.4464 52.8357C90.4045 50.7937 87.6366 49.6442 84.7488 49.6388ZM49.4285 60.5333V66.5018C49.3081 66.5459 49.1918 66.6006 49.081 66.6653L42.0701 71.6936C42.0701 67.4216 42.0701 66.277 39.883 66.277C38.479 66.277 37.1324 65.7192 36.1396 64.7264C35.1468 63.7336 34.5891 62.387 34.5891 60.983V41.0336C34.5891 39.2988 35.2782 37.6352 36.5048 36.4085C37.7315 35.1819 39.3951 34.4928 41.1299 34.4928H65.5557C67.2904 34.4928 68.9541 35.1819 70.1807 36.4085C71.4074 37.6352 72.0965 39.2988 72.0965 41.0336V49.6388H60.3435C57.4522 49.6388 54.679 50.7859 52.6326 52.8285C50.5863 54.871 49.4339 57.642 49.4285 60.5333ZM91.2896 80.4827C91.2896 81.8868 90.7319 83.2333 89.7391 84.2261C88.7463 85.219 87.3997 85.7767 85.9957 85.7767C85.4156 85.7767 84.8593 86.0071 84.4492 86.4173C84.039 86.8274 83.8086 87.3837 83.8086 87.9638V91.1933L76.7977 86.1855C76.428 85.9208 75.985 85.7779 75.5304 85.7767H60.3435C58.6087 85.7767 56.9451 85.0876 55.7184 83.861C54.4918 82.6343 53.8027 80.9706 53.8027 79.2359V60.5333C53.8027 58.7986 54.4918 57.1349 55.7184 55.9083C56.9451 54.6816 58.6087 53.9925 60.3435 53.9925H84.7488C86.4836 53.9925 88.1472 54.6816 89.3739 55.9083C90.6005 57.1349 91.2896 58.7986 91.2896 60.5333V80.4827Z" fill="white"/>
<path fill-rule="evenodd" clip-rule="evenodd" d="M80.3747 67.7691H73.8339V61.2079L65.1265 72.1228H71.6673V78.6636L80.3747 67.7691Z" fill="white"/>
</svg>
